<svg xmlns="http://www.w3.org/2000/svg" xmlns:xlink="http://www.w3.org/1999/xlink" width="512" zoomAndPan="magnify" viewBox="0 0 384 383.999986" height="512" preserveAspectRatio="xMidYMid meet" version="1.0"><defs><clipPath id="f92531ccb1"><path d="M 12 230 L 283 230 L 283 383.78125 L 12 383.78125 Z M 12 230 " clip-rule="nonzero"/></clipPath><clipPath id="3d38533cdc"><path d="M 101 230 L 195 230 L 195 383.78125 L 101 383.78125 Z M 101 230 " clip-rule="nonzero"/></clipPath><clipPath id="2c6ed32aff"><path d="M 71 230 L 148 230 L 148 383.78125 L 71 383.78125 Z M 71 230 " clip-rule="nonzero"/></clipPath><clipPath id="4c32de63bd"><path d="M 147 230 L 224 230 L 224 383.78125 L 147 383.78125 Z M 147 230 " clip-rule="nonzero"/></clipPath><clipPath id="79edf42546"><path d="M 228 337 L 238 337 L 238 383.78125 L 228 383.78125 Z M 228 337 " clip-rule="nonzero"/></clipPath><clipPath id="4c076bd958"><path d="M 57 337 L 67 337 L 67 383.78125 L 57 383.78125 Z M 57 337 " clip-rule="nonzero"/></clipPath><clipPath id="27b592faaf"><path d="M 137 361 L 286 361 L 286 383.78125 L 137 383.78125 Z M 137 361 " clip-rule="nonzero"/></clipPath><clipPath id="697241245d"><path d="M 205 271 L 377 271 L 377 383.78125 L 205 383.78125 Z M 205 271 " clip-rule="nonzero"/></clipPath></defs><rect x="-38.4" width="460.8" fill="#ffffff" y="-38.399999" height="460.799983" fill-opacity="1"/><rect x="-38.4" width="460.8" fill="#ffffff" y="-38.399999" height="460.799983" fill-opacity="1"/><rect x="-38.4" width="460.8" fill="#0053bf" y="-38.399999" height="460.799983" fill-opacity="1"/><g clip-path="url(#f92531ccb1)"><path fill="#54b8ea" d="M 281.78125 383.550781 L 13.472656 383.550781 C 13.472656 383.550781 6.921875 297.988281 26.289062 271.476562 C 41.386719 250.765625 120.566406 230.910156 120.566406 230.910156 L 174.742188 230.910156 C 174.742188 230.910156 253.925781 250.765625 269.019531 271.476562 C 288.277344 297.988281 281.78125 383.550781 281.78125 383.550781 Z M 281.78125 383.550781 " fill-opacity="1" fill-rule="nonzero"/></g><g clip-path="url(#3d38533cdc)"><path fill="#d8d8d8" d="M 194.109375 271.757812 L 158.222656 373.480469 L 147.570312 383.550781 L 136.972656 373.480469 L 101.085938 271.757812 L 107.296875 240.808594 L 120.511719 230.96875 L 174.6875 230.96875 L 187.957031 240.808594 Z M 194.109375 271.757812 " fill-opacity="1" fill-rule="nonzero"/></g><path fill="#f7bd89" d="M 174.6875 195.410156 L 174.6875 263.054688 L 147.570312 271.871094 L 120.511719 263.054688 L 120.511719 195.410156 Z M 174.6875 195.410156 " fill-opacity="1" fill-rule="nonzero"/><g clip-path="url(#2c6ed32aff)"><path fill="#3da2c9" d="M 86.046875 309.25 C 98.179688 333.488281 113.503906 359.886719 131.277344 383.550781 L 147.570312 383.550781 L 147.570312 371.832031 C 126.378906 324.214844 113.503906 277.050781 120.453125 230.910156 L 103.59375 234.609375 C 98.410156 235.746094 93.679688 238.535156 90.375 242.6875 C 82.742188 252.472656 76.589844 265.445312 71.40625 280.519531 L 94.421875 283.367188 Z M 86.046875 309.25 " fill-opacity="1" fill-rule="nonzero"/></g><g clip-path="url(#4c32de63bd)"><path fill="#3da2c9" d="M 147.570312 383.550781 L 163.863281 383.550781 C 181.636719 359.886719 197.015625 333.488281 209.09375 309.25 L 200.605469 283.308594 L 223.621094 280.464844 C 218.492188 265.445312 212.339844 252.472656 204.707031 242.6875 C 201.460938 238.476562 196.675781 235.746094 191.492188 234.609375 L 174.628906 230.910156 C 181.636719 277.050781 168.761719 324.269531 147.511719 371.832031 L 147.511719 383.550781 Z M 147.570312 383.550781 " fill-opacity="1" fill-rule="nonzero"/></g><path fill="#ebebeb" d="M 120.511719 230.910156 L 107.296875 233.527344 C 109.460938 255.660156 116.296875 281.601562 130.023438 295.085938 L 147.625 271.816406 C 132.757812 260.550781 123.703125 246.953125 120.511719 230.910156 Z M 120.511719 230.910156 " fill-opacity="1" fill-rule="nonzero"/><path fill="#ebebeb" d="M 174.6875 230.910156 L 187.902344 233.527344 C 185.738281 255.660156 178.902344 281.601562 165.171875 295.085938 L 147.570312 271.816406 C 162.4375 260.550781 171.496094 246.953125 174.6875 230.910156 Z M 174.6875 230.910156 " fill-opacity="1" fill-rule="nonzero"/><g clip-path="url(#79edf42546)"><path fill="#3da2c9" d="M 237.347656 383.550781 L 228.6875 383.550781 L 233.019531 337.8125 Z M 237.347656 383.550781 " fill-opacity="1" fill-rule="nonzero"/></g><g clip-path="url(#4c076bd958)"><path fill="#3da2c9" d="M 66.507812 383.550781 L 57.847656 383.550781 L 62.179688 337.8125 Z M 66.507812 383.550781 " fill-opacity="1" fill-rule="nonzero"/></g><path fill="#ffffff" d="M 246.519531 255.828125 L 246.519531 284.445312 C 246.519531 330.246094 209.378906 367.339844 163.578125 367.339844 L 12.675781 367.339844 C 11.820312 341.222656 12.160156 290.761719 26.234375 271.476562 C 37.511719 256.058594 84.28125 241.09375 107.410156 234.496094 C 114.414062 232.445312 119.257812 231.253906 120.339844 230.910156 L 120.511719 230.855469 C 123.703125 246.898438 132.757812 260.496094 147.625 271.816406 C 155.03125 266.183594 161.015625 259.925781 165.570312 253.097656 C 170.128906 246.328125 173.148438 238.875 174.742188 230.855469 C 174.742188 230.855469 174.914062 230.910156 175.199219 230.96875 C 176.738281 231.367188 181.351562 232.617188 187.84375 234.496094 C 202.882812 238.761719 227.777344 246.613281 246.519531 255.828125 Z M 246.519531 255.828125 " fill-opacity="0.149" fill-rule="nonzero"/><path fill="#ffffff" d="M 165.515625 253.15625 C 163.464844 263.339844 160.046875 273.125 155.375 282.058594 C 136.804688 318.125 99.148438 342.875 55.683594 342.875 L 12.445312 342.875 C 12.902344 316.988281 15.808594 285.753906 26.234375 271.476562 C 37.511719 256.058594 84.28125 241.09375 107.410156 234.496094 C 114.414062 232.445312 119.257812 231.253906 120.339844 230.910156 L 120.511719 230.855469 C 123.703125 246.898438 132.757812 260.496094 147.625 271.816406 C 154.976562 266.183594 160.957031 259.984375 165.515625 253.15625 Z M 165.515625 253.15625 " fill-opacity="0.149" fill-rule="nonzero"/><path fill="#ffcc99" d="M 207.15625 145.230469 C 207.15625 178.058594 180.496094 237.339844 147.625 237.339844 C 114.699219 237.339844 88.039062 178 88.039062 145.230469 C 88.039062 112.347656 114.699219 85.722656 147.625 85.722656 C 180.496094 85.722656 207.15625 112.347656 207.15625 145.230469 Z M 207.15625 145.230469 " fill-opacity="1" fill-rule="nonzero"/><path fill="#3b4346" d="M 94.308594 176.804688 C 93.394531 154.105469 94.589844 133.566406 103.878906 121.109375 C 135.207031 132.773438 164.03125 128.390625 190.351562 108.25 C 189.097656 119.230469 190.351562 128.277344 195.648438 134.25 C 197.527344 136.355469 198.496094 139.3125 197.359375 141.875 C 193.425781 150.691406 196.730469 164.175781 198.667969 176.804688 L 207.667969 176.804688 C 212.683594 138.460938 220.542969 96.019531 202.199219 91.296875 C 190.066406 62.566406 163.804688 51.417969 130.707031 58.300781 C 129.113281 58.640625 127.519531 59.039062 125.921875 59.496094 C 97.667969 67.515625 79.78125 95.394531 81.71875 124.691406 C 82.855469 141.476562 85.25 157.746094 88.894531 173.5625 Z M 94.308594 176.804688 " fill-opacity="1" fill-rule="nonzero"/><path fill="#ffcc99" d="M 212.398438 174.816406 C 207.613281 183.292969 200.148438 188.128906 195.648438 185.566406 C 191.148438 183.0625 191.375 174.1875 196.105469 165.710938 C 200.832031 157.292969 208.351562 152.398438 212.796875 154.902344 C 217.351562 157.464844 217.125 166.394531 212.398438 174.816406 Z M 212.398438 174.816406 " fill-opacity="1" fill-rule="nonzero"/><path fill="#ffcc99" d="M 82.855469 174.816406 C 87.640625 183.292969 95.105469 188.128906 99.605469 185.566406 C 104.105469 183.0625 103.878906 174.1875 99.148438 165.710938 C 94.421875 157.292969 86.902344 152.398438 82.457031 154.902344 C 77.902344 157.464844 78.128906 166.394531 82.855469 174.816406 Z M 82.855469 174.816406 " fill-opacity="1" fill-rule="nonzero"/><path fill="#ffffff" d="M 174.230469 61.371094 C 162.039062 55.855469 147.171875 54.773438 130.652344 58.242188 C 129 58.640625 127.402344 58.984375 125.867188 59.4375 C 97.609375 67.402344 79.667969 95.335938 81.601562 124.578125 C 82.285156 134.648438 83.425781 144.492188 85.078125 154.21875 C 84.054688 154.21875 83.199219 154.449219 82.34375 154.902344 C 77.84375 157.464844 78.015625 166.394531 82.800781 174.757812 C 86.730469 181.925781 92.710938 186.476562 97.15625 186.195312 C 101.710938 197.628906 107.808594 208.78125 114.984375 217.769531 L 121.25 217.769531 C 150.476562 217.769531 174.230469 194.101562 174.230469 164.859375 Z M 174.230469 61.371094 " fill-opacity="0.2" fill-rule="nonzero"/><g clip-path="url(#27b592faaf)"><path fill="#252b2d" d="M 285.542969 366.996094 L 285.542969 377.578125 C 285.542969 380.878906 282.863281 383.550781 279.558594 383.550781 L 143.183594 383.550781 C 139.878906 383.550781 137.203125 380.878906 137.203125 377.578125 L 137.203125 366.996094 C 137.203125 363.695312 139.878906 361.023438 143.183594 361.023438 L 279.558594 361.023438 C 282.863281 361.023438 285.542969 363.695312 285.542969 366.996094 Z M 285.542969 366.996094 " fill-opacity="1" fill-rule="nonzero"/></g><g clip-path="url(#697241245d)"><path fill="#3b4346" d="M 376.742188 279.15625 L 353.957031 378.886719 C 353.332031 381.617188 350.9375 383.550781 348.089844 383.550781 L 212 383.550781 C 208.125 383.550781 205.277344 379.96875 206.128906 376.214844 L 228.917969 276.480469 C 229.542969 273.75 231.9375 271.816406 234.785156 271.816406 L 370.875 271.816406 C 374.75 271.871094 377.597656 275.398438 376.742188 279.15625 Z M 376.742188 279.15625 " fill-opacity="1" fill-rule="nonzero"/></g><path fill="#252b2d" d="M 303.085938 327.683594 C 302.230469 333.089844 297.046875 337.527344 291.578125 337.527344 C 286.109375 337.527344 282.40625 333.03125 283.320312 327.683594 C 284.230469 322.222656 289.359375 317.84375 294.828125 317.84375 C 300.296875 317.84375 304 322.222656 303.085938 327.683594 Z M 303.085938 327.683594 " fill-opacity="1" fill-rule="nonzero"/><path fill="#ebebeb" d="M 376.972656 133.054688 L 376.972656 222.773438 C 376.972656 225.902344 374.40625 228.464844 371.273438 228.464844 L 239.742188 228.464844 C 236.609375 228.464844 234.042969 225.902344 234.042969 222.773438 L 234.042969 133.054688 C 234.042969 129.925781 236.609375 127.367188 239.742188 127.367188 L 371.273438 127.367188 C 374.40625 127.367188 376.972656 129.871094 376.972656 133.054688 Z M 376.972656 133.054688 " fill-opacity="1" fill-rule="nonzero"/><path fill="#ebebeb" d="M 290.667969 226.417969 L 274.375 253.328125 C 273.292969 255.148438 270.617188 255.148438 269.476562 253.328125 L 253.183594 226.417969 Z M 290.667969 226.417969 " fill-opacity="1" fill-rule="nonzero"/><path fill="#cccccc" d="M 357.832031 211.167969 L 253.183594 211.167969 C 251.589844 211.167969 250.335938 209.917969 250.335938 208.324219 L 250.335938 140.90625 C 250.335938 139.3125 251.589844 138.0625 253.183594 138.0625 C 254.78125 138.0625 256.03125 139.3125 256.03125 140.90625 L 256.03125 205.480469 L 357.832031 205.480469 C 359.425781 205.480469 360.679688 206.730469 360.679688 208.324219 C 360.679688 209.917969 359.367188 211.167969 357.832031 211.167969 Z M 357.832031 211.167969 " fill-opacity="1" fill-rule="nonzero"/><path fill="#54b8ea" d="M 270.046875 167.019531 L 285.425781 167.019531 L 285.425781 196.378906 L 270.046875 196.378906 Z M 270.046875 167.019531 " fill-opacity="1" fill-rule="nonzero"/><path fill="#85c555" d="M 296.707031 147.335938 L 312.085938 147.335938 L 312.085938 196.320312 L 296.707031 196.320312 Z M 296.707031 147.335938 " fill-opacity="1" fill-rule="nonzero"/><path fill="#f15853" d="M 323.367188 159.910156 L 338.746094 159.910156 L 338.746094 196.378906 L 323.367188 196.378906 Z M 323.367188 159.910156 " fill-opacity="1" fill-rule="nonzero"/></svg>